<svg id="Capa_1" enable-background="new 0 0 512 512" height="512" viewBox="0 0 512 512" width="512" xmlns="http://www.w3.org/2000/svg"><g id="Recyclable_2_"><path d="m448.643 60v29.028c-47.998-55.56-118.177-89.028-192.862-89.028-21.563 0-43.008 2.695-63.75 8.027l7.5 29.063c18.252-4.702 37.207-7.09 56.25-7.09 70.972 0 137.582 33.977 179.804 90h-44.218v30h87.275v-90z" fill="#6cf"/><path d="m435.585 120h-44.218v30h87.275v-90h-30v29.028c-47.997-55.56-118.176-89.028-192.861-89.028v30c70.972 0 137.582 33.977 179.804 90z" fill="#59abff"/><g><path d="m512 256c0-21.533-2.695-42.979-8.027-63.735l-29.063 7.471c4.717 18.31 7.09 37.25 7.09 56.264 0 70.968-33.979 137.587-90 179.795v-44.326h-30v87.319h90v-30h-28.943c55.495-47.99 88.943-118.138 88.943-192.788z" fill="#59abff"/><path d="m255.781 482c-70.959 0-137.584-33.975-179.81-90h44.282v-30h-87.421v90h30v-29.13c47.997 55.616 118.209 89.13 192.949 89.13 21.563 0 43.008-2.695 63.75-8.027l-7.5-29.063c-18.252 4.702-37.207 7.09-56.25 7.09z" fill="#6cf"/><g id="Recyclable_4_"><path d="m319.531 503.973-7.5-29.063c-18.252 4.702-37.207 7.09-56.25 7.09v30c21.563 0 43.008-2.695 63.75-8.027z" fill="#59abff"/></g><path d="m30 256c0-70.975 33.979-137.606 90-179.821v44.293h30v-87.451h-90v30h29.165c-55.64 47.994-89.165 118.228-89.165 192.979 0 21.533 2.695 42.979 8.027 63.735l29.063-7.471c-4.717-18.31-7.09-37.25-7.09-56.264z" fill="#6cf"/></g><g><path d="m361 151v210h-210v-210h75l30.326 15 29.674-15z" fill="#ffdf40"/></g><path d="m256 361h105v-210h-75l-29.674 15-.326-.161z" fill="#ffbe40"/><path d="m226 151h60v75h-60z" fill="#ffbe40"/><path d="m256 151h30v75h-30z" fill="#ff9f40"/></g></svg>