<svg id="Layer_1" enable-background="new 0 0 510 510" height="512" viewBox="0 0 510 510" width="512" xmlns="http://www.w3.org/2000/svg"><g><path id="XMLID_985_" d="m265 255h-10-15v-75h15l10 6z" fill="#d4e7fd"/><path id="XMLID_982_" d="m255 180h15v75h-15z" fill="#b5dbff"/><path id="XMLID_979_" d="m345 315-90 15h-105v-15c0-41.355 33.644-75 75-75h30l15 15c41.355 0 75 18.645 75 60z" fill="#65b2fe"/><path id="XMLID_975_" d="m285 240h-30v90h105v-15c0-41.355-33.645-75-75-75z" fill="#467ce8"/><path id="XMLID_971_" d="m105 465h-30c-33.084 0-60-26.916-60-60s26.916-60 60-60h30z" fill="#65b2fe"/><path id="XMLID_965_" d="m435 465h-30v-120h30c33.084 0 60 26.916 60 60s-26.916 60-60 60z" fill="#467ce8"/><path id="XMLID_953_" d="m420 495-165 15h-180v-210h180l165 15z" fill="#d4e7fd"/><path id="XMLID_947_" d="m255 300h180v210h-180z" fill="#b5dbff"/><path id="XMLID_940_" d="m105 480h150l135-15v-120l-135-15h-150z" fill="#ecf4fe"/><path id="XMLID_934_" d="m255 330h150v150h-150z" fill="#d4e7fd"/><path id="XMLID_927_" d="m150 375h60v60h-60z" fill="#65b2fe"/><path id="XMLID_921_" d="m300 375h60v60h-60z" fill="#467ce8"/><path id="XMLID_916_" d="m45 216.213v-66.213h-30v-150h225v150h-128.787z" fill="#65b2fe"/><path id="XMLID_912_" d="m465 216.213-66.213-66.213h-98.787v-150h195v150h-30z" fill="#fdd742"/><path id="XMLID_900_" d="m75 60h105v30h-105z" fill="#ecf4fe"/><path id="XMLID_894_" d="m360 60h75v30h-75z" fill="#fff8e3"/></g></svg>