<svg id="Capa_1" enable-background="new 0 0 512 512" height="512" viewBox="0 0 512 512" width="512" xmlns="http://www.w3.org/2000/svg"><g><path d="m271 330v-30h-30v30h-151v77h30v-47h272v47h30v-77z" fill="#4dc4ff"/><path d="m271 300h-15v60h136v47h30v-77h-151z" fill="#4da6ff"/><g id="Setting_62_"><g><path d="m210 512h-210v-120h210z" fill="#ecf2ff"/></g><g><path d="m512 512h-210v-120h210z" fill="#d9e5ff"/></g></g><path d="m391 150v-30h-31.516c-2.567-17.701-9.417-33.885-19.686-47.591l22.256-22.267-21.211-21.211-22.256 22.267c-13.705-10.267-29.888-17.117-47.587-19.682v-31.516h-30v31.516c-17.699 2.565-33.882 9.415-47.587 19.682l-22.256-22.267-21.211 21.211 22.256 22.267c-10.269 13.705-17.119 29.89-19.686 47.591h-31.516v30h31.516c2.567 17.701 9.417 33.885 19.686 47.591l-22.256 22.268 21.211 21.211 22.256-22.268c13.705 10.267 29.888 17.117 47.587 19.682v31.516h30v-31.516c17.699-2.565 33.882-9.415 47.587-19.682l22.256 22.268 21.211-21.211-22.256-22.268c10.269-13.705 17.119-29.89 19.686-47.591zm-135 30c-24.814 0-45-20.186-45-45s20.186-45 45-45 45 20.186 45 45-20.186 45-45 45z" fill="#4dc4ff"/><path d="m391 150v-30h-31.516c-2.567-17.701-9.417-33.885-19.686-47.591l22.256-22.267-21.211-21.211-22.256 22.267c-13.705-10.267-29.888-17.117-47.587-19.682v-31.516h-15v90c24.814 0 45 20.186 45 45s-20.186 45-45 45v90h15v-31.516c17.699-2.565 33.882-9.415 47.587-19.682l22.256 22.268 21.211-21.211-22.256-22.268c10.269-13.705 17.119-29.89 19.686-47.591z" fill="#4da6ff"/></g></svg>