<svg id="Capa_1" enable-background="new 0 0 512 512" height="512" viewBox="0 0 512 512" width="512" xmlns="http://www.w3.org/2000/svg"><g><path d="m444.147 60.393h-111.147v30h111.147c20.872 0 37.853 16.98 37.853 37.853v81.295c0 20.872-16.98 37.853-37.853 37.853h-12.467l13.469-14.965-22.299-20.069-45.031 50.035 45.031 50.035 22.299-20.069-13.469-14.965h12.467c37.414 0 67.853-30.438 67.853-67.853v-81.295c0-37.416-30.438-67.855-67.853-67.855z" fill="#ffb54c"/><path d="m67.853 282.393h111.147v-30h-111.147c-37.415 0-67.853 30.439-67.853 67.853v81.295c0 37.414 30.438 67.853 67.853 67.853h12.467l-13.469 14.965 22.299 20.069 45.031-50.035-45.031-50.035-22.299 20.069 13.469 14.965h-12.467c-20.873.001-37.853-16.979-37.853-37.851v-81.295c0-20.872 16.98-37.853 37.853-37.853z" fill="#ffdd46"/><path d="m165 342.393h91l20-94-20-56h-91z" fill="#2ad7f5"/><path d="m256 192.393h91v150h-91z" fill="#3ba9ff"/><path d="m165 .393v150h91l27-63-27-87z" fill="#2ad7f5"/><path d="m66.851 101.359 22.298 20.069 45.032-50.035-45.032-50.034-22.298 20.069 13.469 14.965h-80.32v30h80.32z" fill="#ffdd46"/><path d="m256 .393h91v150h-91z" fill="#3ba9ff"/><path d="m233.298 469.18-28.989-28.988-21.213 21.213 50.202 50.202 22.702-22.703 12-26.511-12-15.915z" fill="#90ea8f"/><path d="m307.691 394.787-51.691 51.691v42.426l72.904-72.904z" fill="#00dc7b"/><path d="m256 252.393h42v30h-42z" fill="#0050c1"/><path d="m214 252.393h42v30h-42z" fill="#5a69e5"/><path d="m256 60.393h42v30h-42z" fill="#0050c1"/><path d="m214 60.393h42v30h-42z" fill="#5a69e5"/></g></svg>