<svg id="Capa_1" enable-background="new 0 0 512 512" height="512" viewBox="0 0 512 512" width="512" xmlns="http://www.w3.org/2000/svg"><g><path d="m343.576 205.271c-2.659-30.921-28.678-55.271-60.276-55.271-9.623 0-18.897 2.221-27.3 6.488l-20 99.512 20 99.512c8.402 4.268 17.677 6.488 27.3 6.488 31.599 0 57.617-24.35 60.276-55.271 16.987-11.036 27.524-30.017 27.524-50.729s-10.537-39.693-27.524-50.729z" fill="#e62e6b"/><path d="m228.7 150c-31.599 0-57.617 24.35-60.276 55.271-16.987 11.036-27.524 30.017-27.524 50.729s10.536 39.693 27.523 50.729c2.66 30.921 28.679 55.271 60.277 55.271 9.623 0 18.897-2.221 27.3-6.488v-199.024c-8.402-4.267-17.677-6.488-27.3-6.488z" fill="#ff4d88"/><g fill="#d7cfe6"><path d="m296.107 470.844-5.506-29.49c20.943-3.91 41.012-11.348 59.648-22.107 18.636-10.76 35.111-24.42 48.97-40.604l22.787 19.514c-16.075 18.771-35.171 34.607-56.757 47.07-21.587 12.463-44.85 21.083-69.142 25.617z"/><path d="m462.114 328.688-28.293-9.977c7.086-20.093 10.679-41.191 10.679-62.711s-3.593-42.618-10.679-62.711l28.293-9.977c8.219 23.306 12.386 47.761 12.386 72.688s-4.167 49.382-12.386 72.688z"/><path d="m399.22 133.357c-13.858-16.184-30.334-29.844-48.97-40.604-18.637-10.76-38.705-18.197-59.648-22.107l5.506-29.49c24.292 4.534 47.555 13.153 69.143 25.617 21.586 12.463 40.682 28.3 56.757 47.07z"/></g><path d="m49.886 328.688c-8.219-23.306-12.386-47.761-12.386-72.688s4.167-49.382 12.386-72.688l28.293 9.977c-7.086 20.093-10.679 41.191-10.679 62.711s3.593 42.618 10.679 62.711z" fill="#e6e6f2"/><path d="m215.893 470.844c-24.292-4.534-47.555-13.153-69.143-25.617-21.586-12.463-40.682-28.3-56.757-47.07l22.787-19.514c13.858 16.184 30.334 29.844 48.97 40.604 18.637 10.76 38.705 18.197 59.648 22.107z" fill="#e6e6f2"/><path d="m112.78 133.357-22.787-19.514c16.075-18.771 35.171-34.607 56.757-47.07 21.588-12.464 44.851-21.083 69.143-25.617l5.506 29.49c-20.943 3.91-41.012 11.348-59.648 22.107-18.637 10.761-35.112 24.421-48.971 40.604z" fill="#e6e6f2"/><circle cx="79.764" cy="154.25" fill="#29cccc" r="52.5"/><circle cx="79.764" cy="154.25" fill="#3fb" r="22.5"/><circle cx="432.236" cy="357.75" fill="#249bb3" r="52.5"/><circle cx="432.236" cy="357.75" fill="#29cccc" r="22.5"/><circle cx="79.764" cy="357.75" fill="#29cccc" r="52.5"/><circle cx="79.764" cy="357.75" fill="#3fb" r="22.5"/><circle cx="432.236" cy="154.25" fill="#249bb3" r="52.5"/><circle cx="432.236" cy="154.25" fill="#29cccc" r="22.5"/><path d="m198.2 301.5c0-.734.038-1.556.115-2.512l.868-10.714-9.867-4.266c-11.187-4.836-18.416-15.83-18.416-28.008s7.229-23.172 18.416-28.009l9.867-4.266-.868-10.714c-.077-.956-.115-1.777-.115-2.512 0-16.817 13.683-30.5 30.5-30.5 4.303 0 8.461.892 12.3 2.59v146.82c-3.839 1.698-7.997 2.59-12.3 2.59-16.817.001-30.5-13.682-30.5-30.499z" fill="#ffb3b3"/><path d="m322.684 284.009-9.867 4.266.868 10.714c.077.956.115 1.777.115 2.512 0 16.817-13.683 30.5-30.5 30.5-4.303 0-8.461-.892-12.3-2.59v-146.821c3.839-1.698 7.997-2.59 12.3-2.59 16.817 0 30.5 13.683 30.5 30.5 0 .734-.038 1.556-.115 2.512l-.868 10.714 9.867 4.266c11.187 4.836 18.416 15.83 18.416 28.008s-7.229 23.172-18.416 28.009z" fill="#ff8080"/><path d="m308.5 52.5c0-28.948-23.552-52.5-52.5-52.5l-20 52.5 20 52.5c28.948 0 52.5-23.552 52.5-52.5z" fill="#249bb3"/><path d="m203.5 52.5c0 28.948 23.552 52.5 52.5 52.5v-105c-28.948 0-52.5 23.552-52.5 52.5z" fill="#29cccc"/><path d="m256 407-20 52.5 20 52.5c28.948 0 52.5-23.552 52.5-52.5s-23.552-52.5-52.5-52.5z" fill="#249bb3"/><path d="m203.5 459.5c0 28.948 23.552 52.5 52.5 52.5v-105c-28.948 0-52.5 23.552-52.5 52.5z" fill="#29cccc"/><path d="m278.5 459.5c0-12.406-10.094-22.5-22.5-22.5l-20 22.5 20 22.5c12.406 0 22.5-10.094 22.5-22.5z" fill="#29cccc"/><path d="m233.5 459.5c0 12.406 10.094 22.5 22.5 22.5v-45c-12.406 0-22.5 10.094-22.5 22.5z" fill="#3fb"/><path d="m278.5 52.5c0-12.406-10.094-22.5-22.5-22.5l-20 22.5 20 22.5c12.406 0 22.5-10.094 22.5-22.5z" fill="#29cccc"/><path d="m233.5 52.5c0 12.406 10.094 22.5 22.5 22.5v-45c-12.406 0-22.5 10.094-22.5 22.5z" fill="#3fb"/></g></svg>